<svg width="732" height="545" viewBox="0 0 732 545" fill="none" xmlns="http://www.w3.org/2000/svg">
<path d="M77.7818 552C167.684 552 240.564 546.625 240.564 539.994C240.564 533.364 167.684 527.988 77.7818 527.988C-12.1201 527.988 -85 533.364 -85 539.994C-85 546.625 -12.1201 552 77.7818 552Z" fill="#E6E6E6"/>
<path d="M712.64 477.195H135.261C130.127 477.195 125.203 475.214 121.572 471.689C117.941 468.163 115.902 463.381 115.902 458.395C325.201 434.773 530.567 434.773 732 458.395C732 463.381 729.96 468.163 726.33 471.689C722.699 475.214 717.775 477.195 712.64 477.195Z" fill="#2F2E41"/>
<path d="M732 459.501L115.902 458.395L187.305 341.723L187.647 341.17V84.0372C187.647 80.9162 188.28 77.8257 189.509 74.9422C190.739 72.0587 192.542 69.4386 194.814 67.2317C197.087 65.0248 199.785 63.2743 202.754 62.08C205.724 60.8858 208.906 60.2712 212.12 60.2715H632.365C635.579 60.2712 638.762 60.8858 641.731 62.08C644.7 63.2743 647.398 65.0248 649.671 67.2317C651.943 69.4386 653.746 72.0587 654.976 74.9422C656.206 77.8257 656.839 80.9162 656.838 84.0372V342.939L732 459.501Z" fill="#3F3D56"/>
<path d="M211.562 76.8599C209.449 76.8622 207.422 77.6786 205.928 79.1298C204.433 80.5811 203.593 82.5488 203.59 84.6012V319.052C203.593 321.104 204.433 323.072 205.928 324.523C207.422 325.974 209.449 326.791 211.562 326.793H636.34C638.453 326.79 640.479 325.974 641.974 324.523C643.468 323.072 644.309 321.104 644.311 319.052V84.6012C644.309 82.5488 643.468 80.5812 641.974 79.1299C640.479 77.6787 638.453 76.8623 636.34 76.8599H211.562Z" fill="white"/>
<path d="M213.342 357.758C212.689 357.759 212.05 357.942 211.5 358.284C210.95 358.626 210.512 359.113 210.238 359.689L188.236 406.137C187.997 406.642 187.892 407.198 187.932 407.753C187.971 408.308 188.154 408.845 188.463 409.313C188.772 409.782 189.198 410.167 189.7 410.434C190.203 410.701 190.767 410.841 191.34 410.841H654.023C654.606 410.841 655.178 410.697 655.687 410.421C656.196 410.146 656.623 409.749 656.93 409.268C657.236 408.787 657.41 408.237 657.436 407.672C657.462 407.108 657.339 406.545 657.078 406.04L633.163 359.592C632.881 359.04 632.446 358.575 631.906 358.251C631.366 357.927 630.743 357.756 630.108 357.758H213.342Z" fill="#2F2E41"/>
<path d="M422.243 72.9893C425.073 72.9893 427.367 70.7612 427.367 68.0128C427.367 65.2643 425.073 63.0362 422.243 63.0362C419.412 63.0362 417.118 65.2643 417.118 68.0128C417.118 70.7612 419.412 72.9893 422.243 72.9893Z" fill="white"/>
<path d="M376.765 419.688C376.014 419.689 375.284 419.93 374.688 420.374C374.091 420.817 373.662 421.439 373.466 422.143L367.947 442.049C367.811 442.541 367.793 443.057 367.894 443.556C367.996 444.056 368.215 444.526 368.534 444.93C368.853 445.334 369.263 445.662 369.734 445.887C370.204 446.113 370.721 446.23 371.246 446.23H476.203C476.748 446.23 477.284 446.104 477.768 445.861C478.252 445.619 478.67 445.267 478.986 444.837C479.301 444.406 479.507 443.908 479.584 443.384C479.661 442.861 479.609 442.327 479.43 441.827L472.335 421.921C472.102 421.269 471.666 420.704 471.088 420.304C470.509 419.904 469.817 419.689 469.106 419.688H376.765Z" fill="#2F2E41"/>
<path d="M656.838 337.299V341.722H187.305L187.659 341.17V337.299H656.838Z" fill="#2F2E41"/>
<path d="M643.742 154.826C687.768 154.826 723.459 120.167 723.459 77.4129C723.459 34.6589 687.768 0 643.742 0C599.715 0 564.025 34.6589 564.025 77.4129C564.025 120.167 599.715 154.826 643.742 154.826Z" fill="#045C0C"/>
<path d="M676.768 111.143H610.716C609.509 111.142 608.351 110.675 607.497 109.846C606.643 109.017 606.162 107.892 606.161 106.719V68.0128C606.162 66.8399 606.643 65.7155 607.497 64.8862C608.351 64.0569 609.509 63.5904 610.716 63.5892H676.768C677.975 63.5904 679.133 64.0569 679.987 64.8862C680.841 65.7155 681.322 66.8399 681.323 68.0128V106.719C681.322 107.892 680.841 109.017 679.987 109.846C679.133 110.675 677.975 111.142 676.768 111.143ZM610.716 68.0128V106.719H676.771L676.768 68.0128L610.716 68.0128Z" fill="white"/>
<path d="M664.241 68.0127H623.243V50.3184C623.243 37.5023 631.864 28.2004 643.742 28.2004C655.619 28.2004 664.241 37.5023 664.241 50.3184L664.241 68.0127ZM627.798 63.5891H659.685V50.3184C659.685 39.9003 653.129 32.624 643.742 32.624C634.355 32.624 627.799 39.9003 627.799 50.3184L627.798 63.5891Z" fill="white"/>
<path d="M643.742 90.6836C646.258 90.6836 648.297 88.7031 648.297 86.2601C648.297 83.817 646.258 81.8365 643.742 81.8365C641.226 81.8365 639.187 83.817 639.187 86.2601C639.187 88.7031 641.226 90.6836 643.742 90.6836Z" fill="white"/>
<path d="M588.093 247.27H259.809C258.197 247.268 256.652 246.645 255.512 245.539C254.373 244.432 253.732 242.931 253.73 241.366V162.287C253.732 160.722 254.373 159.221 255.512 158.114C256.652 157.008 258.197 156.385 259.809 156.383H588.093C589.704 156.385 591.249 157.008 592.389 158.114C593.529 159.221 594.17 160.722 594.172 162.287V241.366C594.17 242.931 593.529 244.432 592.389 245.539C591.249 246.645 589.704 247.268 588.093 247.27V247.27ZM259.809 158.745C258.842 158.746 257.915 159.119 257.231 159.783C256.547 160.447 256.163 161.348 256.162 162.287V241.366C256.163 242.305 256.547 243.206 257.231 243.87C257.915 244.534 258.842 244.907 259.809 244.908H588.093C589.06 244.907 589.987 244.534 590.671 243.87C591.354 243.206 591.739 242.305 591.74 241.366V162.287C591.739 161.348 591.354 160.447 590.671 159.783C589.987 159.119 589.06 158.746 588.093 158.745L259.809 158.745Z" fill="#E6E6E6"/>
<path d="M310.818 222.84C324.494 222.84 335.582 212.074 335.582 198.792C335.582 185.511 324.494 174.744 310.818 174.744C297.141 174.744 286.054 185.511 286.054 198.792C286.054 212.074 297.141 222.84 310.818 222.84Z" fill="#E6E6E6"/>
<path d="M368.011 182.76C367.468 182.759 366.931 182.862 366.429 183.063C365.928 183.264 365.472 183.559 365.088 183.932C364.704 184.304 364.399 184.746 364.191 185.233C363.984 185.72 363.877 186.241 363.877 186.768C363.877 187.295 363.984 187.817 364.191 188.303C364.399 188.79 364.704 189.232 365.088 189.604C365.472 189.977 365.928 190.272 366.429 190.473C366.931 190.674 367.468 190.777 368.011 190.776H562.584C563.679 190.776 564.728 190.354 565.502 189.602C566.276 188.851 566.711 187.831 566.711 186.768C566.711 185.705 566.276 184.686 565.502 183.934C564.728 183.182 563.679 182.76 562.584 182.76H368.011Z" fill="#E6E6E6"/>
<path d="M368.011 206.808C366.916 206.808 365.866 207.23 365.092 207.982C364.318 208.734 363.883 209.753 363.883 210.816C363.883 211.879 364.318 212.899 365.092 213.65C365.866 214.402 366.916 214.824 368.011 214.824H451.736C452.831 214.824 453.88 214.402 454.654 213.65C455.428 212.899 455.863 211.879 455.863 210.816C455.863 209.753 455.428 208.734 454.654 207.982C453.88 207.23 452.831 206.808 451.736 206.808H368.011Z" fill="#E6E6E6"/>
</svg>
